<svg xmlns="http://www.w3.org/2000/svg" version="1.1" xmlns:xlink="http://www.w3.org/1999/xlink" xmlns:svgjs="http://svgjs.dev/svgjs" width="1000" height="287" viewBox="0 0 1000 287"><g transform="matrix(1,0,0,1,-0.6060606060606233,0.13743108480315414)"><svg viewBox="0 0 396 114" data-background-color="#ffffff" preserveAspectRatio="xMidYMid meet" height="287" width="1000" xmlns="http://www.w3.org/2000/svg" xmlns:xlink="http://www.w3.org/1999/xlink"><g id="tight-bounds" transform="matrix(1,0,0,1,0.2400000000000091,-0.05458935075805016)"><svg viewBox="0 0 395.52 114.10917870151609" height="114.10917870151609" width="395.52"><g><svg viewBox="0 0 584.3899952838694 168.59896440944883" height="114.10917870151609" width="395.52"><g transform="matrix(1,0,0,1,188.8699952838695,41.36620886389201)"><svg viewBox="0 0 395.52 85.8665466816648" height="85.8665466816648" width="395.52"><g id="textblocktransform"><svg viewBox="0 0 395.52 85.8665466816648" height="85.8665466816648" width="395.52" id="textblock"><g><svg viewBox="0 0 395.52 85.8665466816648" height="85.8665466816648" width="395.52"><g transform="matrix(1,0,0,1,0,0)"><svg width="395.52" viewBox="6.05 -38.8 222.23 48.25" height="85.8665466816648" data-palette-color="#8789fe"><path d="M25.25-30L25.25-30Q22.4-30 20.08-28.58 17.75-27.15 16.1-24.85 14.45-22.55 13.53-19.63 12.6-16.7 12.6-13.7L12.6-13.7Q12.6-9.6 14.35-7.15 16.1-4.7 19.95-4.7L19.95-4.7Q22.8-4.7 25.15-6.13 27.5-7.55 29.15-9.85 30.8-12.15 31.73-15.08 32.65-18 32.65-21L32.65-21Q32.65-25.1 30.88-27.55 29.1-30 25.25-30ZM19.3 0.75L19.3 0.75Q16.4 0.75 13.98-0.18 11.55-1.1 9.78-2.85 8-4.6 7.03-7.2 6.05-9.8 6.05-13.15L6.05-13.15Q6.05-17.15 7.35-21.15 8.65-25.15 11.18-28.33 13.7-31.5 17.4-33.48 21.1-35.45 25.9-35.45L25.9-35.45Q28.8-35.45 31.25-34.52 33.7-33.6 35.45-31.85 37.2-30.1 38.18-27.5 39.15-24.9 39.15-21.55L39.15-21.55Q39.15-17.55 37.85-13.55 36.55-9.55 34.05-6.38 31.55-3.2 27.83-1.23 24.1 0.75 19.3 0.75ZM40.75 0L46.75-25.05Q48.75-25.65 51.25-26.18 53.75-26.7 56.75-26.7L56.75-26.7Q59-26.7 60.52-26.05 62.05-25.4 63.1-24.2L63.1-24.2Q64.55-25.05 66.62-25.88 68.7-26.7 71.35-26.7L71.35-26.7Q73.65-26.7 75.25-26.05 76.85-25.4 77.85-24.25 78.85-23.1 79.3-21.53 79.75-19.95 79.75-18.1L79.75-18.1Q79.75-16.05 79.2-13.75L79.2-13.75 75.9 0 69.85 0 72.95-13.1Q73.2-14.05 73.42-15.18 73.65-16.3 73.65-17.45L73.65-17.45Q73.65-18.25 73.47-19.03 73.3-19.8 72.85-20.35 72.4-20.9 71.62-21.25 70.85-21.6 69.65-21.6L69.65-21.6Q68.35-21.6 67.1-21.1 65.85-20.6 65-20.05L65-20.05Q65.2-19.1 65.2-18L65.2-18Q65.2-17 65.05-15.9 64.9-14.8 64.65-13.75L64.65-13.75 61.35 0 55.3 0 58.4-13.1Q58.65-14 58.87-15.18 59.1-16.35 59.1-17.5L59.1-17.5Q59.1-19.15 58.32-20.38 57.55-21.6 55.4-21.6L55.4-21.6Q54.4-21.6 53.5-21.48 52.6-21.35 51.85-21.15L51.85-21.15 46.8 0 40.75 0ZM82.85 0L88.85-25.05Q90.85-25.65 93.42-26.18 96-26.7 99.05-26.7L99.05-26.7Q103.65-26.7 105.8-24.45 107.95-22.2 107.95-18.4L107.95-18.4Q107.95-17.35 107.77-16.18 107.6-15 107.35-13.75L107.35-13.75 104.05 0 98 0 101.1-13.1Q101.35-14.2 101.6-15.35 101.85-16.5 101.9-17.55L101.9-17.55Q101.95-19.3 101.07-20.45 100.2-21.6 97.65-21.6L97.65-21.6Q95.5-21.6 93.95-21.15L93.95-21.15 88.9 0 82.85 0ZM123.29-26.15L116.99 0 110.99 0 117.24-26.15 123.29-26.15ZM121.49-30.1L121.49-30.1Q120.14-30.1 119.14-30.9 118.14-31.7 118.14-33.3L118.14-33.3Q118.14-35.15 119.42-36.35 120.69-37.55 122.34-37.55L122.34-37.55Q123.69-37.55 124.72-36.73 125.74-35.9 125.74-34.3L125.74-34.3Q125.74-32.45 124.44-31.28 123.14-30.1 121.49-30.1ZM137.44-27.9L136.99-26.15 145.74-26.15 144.54-21.15 135.79-21.15 132.04-5.5Q131.39-2.8 130.82-0.7 130.24 1.4 129.49 3.15 128.74 4.9 127.72 6.43 126.69 7.95 125.14 9.45L125.14 9.45 119.89 8.65Q120.84 7.45 121.67 6.23 122.49 5 123.17 3.63 123.84 2.25 124.42 0.63 124.99-1 125.44-3L125.44-3 131.39-28Q131.99-30.55 133.02-32.58 134.04-34.6 135.57-35.98 137.09-37.35 139.22-38.08 141.34-38.8 144.14-38.8L144.14-38.8Q146.14-38.8 147.77-38.38 149.39-37.95 150.24-37.55L150.24-37.55 148.04-32.8Q147.39-33.1 146.32-33.38 145.24-33.65 143.79-33.65L143.79-33.65Q142.29-33.65 141.24-33.23 140.19-32.8 139.44-32.05 138.69-31.3 138.22-30.23 137.74-29.15 137.44-27.9L137.44-27.9ZM155.24-4.5L153.94 0.5Q151.59 0.45 149.96-0.1 148.34-0.65 147.36-1.6 146.39-2.55 145.96-3.85 145.54-5.15 145.54-6.7L145.54-6.7Q145.54-8.3 145.91-10.08 146.29-11.85 146.74-13.6L146.74-13.6 152.54-37.8 158.84-38.8Q157.29-32.25 155.74-25.78 154.19-19.3 152.59-12.75L152.59-12.75Q152.34-11.7 152.04-10.68 151.74-9.65 151.74-8.65L151.74-8.65Q151.74-7.8 151.76-7.08 151.79-6.35 152.16-5.83 152.54-5.3 153.29-4.95 154.04-4.6 155.24-4.5L155.24-4.5ZM169.14 0.7L169.14 0.7Q164.49 0.7 162.04-2.05 159.59-4.8 159.59-9.3L159.59-9.3Q159.59-12.2 160.49-15.3 161.39-18.4 163.24-20.95 165.09-23.5 167.89-25.15 170.69-26.8 174.49-26.8L174.49-26.8Q179.14-26.8 181.59-24.08 184.04-21.35 184.04-16.85L184.04-16.85Q184.04-13.9 183.16-10.8 182.29-7.7 180.46-5.15 178.64-2.6 175.81-0.95 172.99 0.7 169.14 0.7ZM173.74-21.7L173.74-21.7Q171.79-21.7 170.26-20.58 168.74-19.45 167.71-17.7 166.69-15.95 166.14-13.88 165.59-11.8 165.59-9.85L165.59-9.85Q165.59-7.35 166.54-5.9 167.49-4.45 169.89-4.45L169.89-4.45Q171.84-4.45 173.36-5.58 174.89-6.7 175.91-8.43 176.94-10.15 177.49-12.25 178.04-14.35 178.04-16.25L178.04-16.25Q178.04-18.75 177.09-20.23 176.14-21.7 173.74-21.7ZM207.28-16.55L207.28-16.55Q206.33-14.4 205.13-12.13 203.93-9.85 202.63-7.68 201.33-5.5 200.03-3.53 198.73-1.55 197.63 0L197.63 0 192.63 0Q192.18-2.3 191.76-5.25 191.33-8.2 190.98-11.55 190.63-14.9 190.36-18.6 190.08-22.3 189.98-26.15L189.98-26.15 195.98-26.15Q195.98-24.05 196.03-21.63 196.08-19.2 196.21-16.68 196.33-14.15 196.51-11.7 196.68-9.25 196.98-7.1L196.98-7.1Q198.38-9.25 199.76-11.68 201.13-14.1 202.38-16.57 203.63-19.05 204.71-21.5 205.78-23.95 206.58-26.15L206.58-26.15 211.78-26.15Q211.78-24.1 211.83-21.8 211.88-19.5 212.01-17.05 212.13-14.6 212.31-12.08 212.48-9.55 212.78-7.1L212.78-7.1Q214.08-9 215.43-11.45 216.78-13.9 218.03-16.48 219.28-19.05 220.31-21.58 221.33-24.1 221.98-26.15L221.98-26.15 228.28-26.15Q227.23-23.15 225.71-19.78 224.18-16.4 222.28-12.95 220.38-9.5 218.21-6.18 216.03-2.85 213.68 0L213.68 0 208.68 0Q208.13-4.2 207.76-8.28 207.38-12.35 207.28-16.55Z" opacity="1" transform="matrix(1,0,0,1,0,0)" fill="#8789fe" class="wordmark-text-0" data-fill-palette-color="primary" id="text-0"></path></svg></g></svg></g></svg></g></svg></g><g><svg viewBox="0 0 168.59896440944883 168.59896440944883" height="168.59896440944883" width="168.59896440944883"><g><svg xmlns="http://www.w3.org/2000/svg" xmlns:xlink="http://www.w3.org/1999/xlink" version="1.1" x="0" y="0" viewBox="1 1 62 62" style="enable-background:new 0 0 64 64;" xml:space="preserve" height="168.59896440944883" width="168.59896440944883" class="icon-icon-0" data-fill-palette-color="accent" id="icon-0"><g fill="#8789fe" data-fill-palette-color="accent"><path d="M33 37h16v-2H33v-6h2v-2h-2v-4h12v-2H33V10c0-4.962-4.038-9-9-9-3.607 0-6.717 2.138-8.152 5.21l-0.047 0.01C10.701 7.255 7 11.789 7 17c0 1.26 0.214 2.493 0.638 3.676C3.577 22.964 1 27.311 1 32c0 4.253 2.108 8.238 5.562 10.656C5.578 44.204 5 46.034 5 48c0 5.514 4.486 10 10 10 0.301 0 0.607-0.016 0.923-0.047C17.42 61.001 20.571 63 24 63c4.962 0 9-4.038 9-9V43h7v-2h-7V37zM31 54c0 3.86-3.14 7-7 7-2.875 0-5.499-1.808-6.531-4.499l-0.294-0.768-0.81 0.14C15.875 55.959 15.428 56 15 56c-4.411 0-8-3.589-8-8s3.589-8 8-8v-2c-2.822 0-5.369 1.18-7.189 3.066C4.834 39.026 3 35.636 3 32c0-4.235 2.486-8.14 6.333-9.949l0.896-0.421L9.817 20.73C9.275 19.543 9 18.289 9 17c0-3.889 2.522-7.309 6.14-8.526C15.054 8.971 15 9.479 15 10c0 1.582 0.417 3.138 1.205 4.5l1.731-1.001C17.324 12.441 17 11.23 17 10c0-3.86 3.14-7 7-7s7 3.14 7 7V54z" fill="#8789fe" data-fill-palette-color="accent"></path><path d="M24 57v2c2.757 0 5-2.243 5-5h-2C27 55.654 25.654 57 24 57z" fill="#8789fe" data-fill-palette-color="accent"></path><path d="M11 48H9c0 3.309 2.691 6 6 6v-2C12.794 52 11 50.206 11 48z" fill="#8789fe" data-fill-palette-color="accent"></path><path d="M57 50.184V46c0-2.757-2.243-5-5-5H42v2h10c1.654 0 3 1.346 3 3v4.184c-1.161 0.414-2 1.514-2 2.816 0 1.654 1.346 3 3 3s3-1.346 3-3C59 51.698 58.161 50.598 57 50.184zM56 54c-0.551 0-1-0.449-1-1s0.449-1 1-1 1 0.449 1 1S56.551 54 56 54z" fill="#8789fe" data-fill-palette-color="accent"></path><path d="M60 33c-1.302 0-2.402 0.839-2.816 2H51v2h6.184c0.414 1.161 1.514 2 2.816 2 1.654 0 3-1.346 3-3S61.654 33 60 33zM60 37c-0.551 0-1-0.449-1-1s0.449-1 1-1 1 0.449 1 1S60.551 37 60 37z" fill="#8789fe" data-fill-palette-color="accent"></path><path d="M57.184 27H37v2h20.184c0.414 1.161 1.514 2 2.816 2 1.654 0 3-1.346 3-3s-1.346-3-3-3C58.698 25 57.598 25.839 57.184 27zM60 27c0.551 0 1 0.449 1 1s-0.449 1-1 1-1-0.449-1-1S59.449 27 60 27z" fill="#8789fe" data-fill-palette-color="accent"></path><path d="M57 18v-4.184c1.161-0.414 2-1.514 2-2.816 0-1.654-1.346-3-3-3s-3 1.346-3 3c0 1.302 0.839 2.402 2 2.816V18c0 1.654-1.346 3-3 3h-5v2h5C54.757 23 57 20.757 57 18zM56 10c0.551 0 1 0.449 1 1s-0.449 1-1 1-1-0.449-1-1S55.449 10 56 10z" fill="#8789fe" data-fill-palette-color="accent"></path><path d="M11.879 26.879c-1.95 1.949-1.95 5.122 0 7.071l1.414-1.414c-1.169-1.17-1.169-3.073 0-4.243 1.17-1.171 3.073-1.17 4.243 0l1.414-1.414C17 24.93 13.828 24.929 11.879 26.879z" fill="#8789fe" data-fill-palette-color="accent"></path><path d="M24 5c-2.757 0-5 2.243-5 5h2c0-1.654 1.346-3 3-3s3 1.346 3 3h2C29 7.243 26.757 5 24 5z" fill="#8789fe" data-fill-palette-color="accent"></path><path d="M28 24c0-2.757-2.243-5-5-5v2c1.654 0 3 1.346 3 3s-1.346 3-3 3v2C25.757 29 28 26.757 28 24z" fill="#8789fe" data-fill-palette-color="accent"></path><path d="M18 45c0 2.757 2.243 5 5 5v-2c-1.654 0-3-1.346-3-3s1.346-3 3-3v-2C20.243 40 18 42.243 18 45z" fill="#8789fe" data-fill-palette-color="accent"></path></g></svg></g></svg></g></svg></g><defs></defs></svg><rect width="395.52" height="114.10917870151609" fill="none" stroke="none" visibility="hidden"></rect></g></svg></g></svg>